<svg xmlns="http://www.w3.org/2000/svg" viewBox="0 0 90 112.5125" x="0px" y="0px"><title>Asset 6</title><g data-name="Layer 2"><g data-name="Layer 1"><path d="M21.41,25.47a44.32,44.32,0,0,0,4.41,7.34A45.77,45.77,0,0,0,18.67,32a31.86,31.86,0,0,1-4.34-5.09,29.81,29.81,0,0,1-2-3.36,32.1,32.1,0,0,1,3.87.48A30.8,30.8,0,0,1,21.41,25.47Z"/><path d="M14.6,47.9a45.06,45.06,0,0,0,8.29,2,45.38,45.38,0,0,0-5.66,4.47,32.1,32.1,0,0,1-6.69-.54,30.17,30.17,0,0,1-3.74-1,31.59,31.59,0,0,1,3-2.36,31.25,31.25,0,0,1,4.77-2.65Z"/><path d="M25.54,68.57a44.87,44.87,0,0,0,7.33-4.41,45.43,45.43,0,0,0-.85,7.2,31.42,31.42,0,0,1-5.09,4.34,31.14,31.14,0,0,1-3.36,2A31.81,31.81,0,0,1,24,73.81,31.46,31.46,0,0,1,25.54,68.57Z"/><path d="M53.92,79.5a28.54,28.54,0,0,1-.81,3.21,30.65,30.65,0,0,1-2-2.59,32,32,0,0,1-3-5.2h0a45.59,45.59,0,0,0,1.93-8.17,46,46,0,0,0,4.38,5.5A32.2,32.2,0,0,1,53.92,79.5Z"/><path d="M78,66a32.35,32.35,0,0,1-4-.46l-.2,0a31.41,31.41,0,0,1-5.46-1.57,44.89,44.89,0,0,0-4.45-7.18,45,45,0,0,0,7.64.85A29.62,29.62,0,0,1,78,66Z"/><path d="M84.23,36.88A31.18,31.18,0,0,1,80.28,40a29.26,29.26,0,0,1-3.71,2.08A43.36,43.36,0,0,0,68,39.84a43.38,43.38,0,0,0,5.89-4.73,30.69,30.69,0,0,1,5.61.5l.2,0A32.06,32.06,0,0,1,84.23,36.88Z"/><path d="M66.42,12.9A32.07,32.07,0,0,1,66,16.19a30.52,30.52,0,0,1-1.27,4.63,44,44,0,0,0-7.45,4.46,48.12,48.12,0,0,0,.72-6,31.58,31.58,0,0,1,5.57-4.69A29.6,29.6,0,0,1,66.42,12.9Z"/><path d="M40.3,23.18a44.24,44.24,0,0,0-4.72-6,31.77,31.77,0,0,1,.54-6.66,28.17,28.17,0,0,1,1-3.78,32.73,32.73,0,0,1,2.39,3.08A31.34,31.34,0,0,1,42.36,15h0A44.7,44.7,0,0,0,40.3,23.18Z"/><path d="M47.44,5.48c-.44.58-.84,1.15-1.23,1.74q-.79,1.21-1.5,2.5c-.47-.85-1-1.66-1.52-2.46s-1.06-1.48-1.64-2.2A35.77,35.77,0,0,1,44.3,0,35,35,0,0,1,47.44,5.48Z"/><path d="M53.57,17.46a44.29,44.29,0,0,0-4.21,5.65A44.1,44.1,0,0,0,47.17,15,30.62,30.62,0,0,1,49.94,9.7,29.54,29.54,0,0,1,51.9,7a30.28,30.28,0,0,1,.91,3.18A31.88,31.88,0,0,1,53.57,17.46Z"/><path d="M62.94,9.7c-.64.37-1.23.73-1.83,1.12a35.71,35.71,0,0,0-3.29,2.45,35,35,0,0,0-.65-4c-.15-.7-.33-1.39-.54-2.09A35.84,35.84,0,0,1,62.1,2.73,36.47,36.47,0,0,1,62.94,9.7Z"/><path d="M71.93,18.31q-1,.23-1.93.51c.15-.6.28-1.21.39-1.81s.24-1.4.33-2.13a35.07,35.07,0,0,1,6.08-1.75,36.6,36.6,0,0,1-1.19,4.55,35,35,0,0,0-3.49.59Z"/><path d="M77.77,22A30.23,30.23,0,0,1,72,30.67a44.81,44.81,0,0,0-7.86,1.11,43.81,43.81,0,0,0,4.12-7.6,30.29,30.29,0,0,1,4.7-1.5l.2,0A31.1,31.1,0,0,1,77.77,22Z"/><path d="M88.15,26.36a37.82,37.82,0,0,1-4.21,5.74,33.6,33.6,0,0,0-3.43-.85l-.2,0c-.87-.16-1.74-.29-2.62-.38.5-.65,1-1.32,1.42-2a33.15,33.15,0,0,0,1.94-3.36A38.19,38.19,0,0,1,88.15,26.36Z"/><path d="M83.63,51.14a29.65,29.65,0,0,1-3.87,1.17l-.19,0a32.31,32.31,0,0,1-6.36.75,44.6,44.6,0,0,0-5.07-3.71,43,43,0,0,0,8.51-2.49,31,31,0,0,1,3.78,2A30.16,30.16,0,0,1,83.63,51.14Z"/><path d="M83.59,55.89a35.77,35.77,0,0,1,4.54,5.48,36.45,36.45,0,0,1-7,1c-.47-.81-1-1.58-1.5-2.34a33.62,33.62,0,0,0-2.18-2.79c1-.14,2.08-.33,3.1-.55l.2,0C81.71,56.46,82.65,56.2,83.59,55.89Z"/><path d="M82.77,45.07c-.37-.22-.74-.45-1.12-.65.37-.23.73-.46,1.09-.7a34,34,0,0,0,3.1-2.31A37.75,37.75,0,0,1,90,43.68a35.1,35.1,0,0,1-4.92,2.94C84.34,46.07,83.56,45.55,82.77,45.07Z"/><path d="M62.19,78.63c.61.38,1.24.73,1.88,1.06a35.35,35.35,0,0,1-.63,7,36,36,0,0,1-5.6-4.25c.19-.71.34-1.4.47-2.1a35.45,35.45,0,0,0,.53-4A36.26,36.26,0,0,0,62.19,78.63Z"/><path d="M67.44,76.38a29.51,29.51,0,0,1-2.91-1.57,31.64,31.64,0,0,1-5.73-4.52,45,45,0,0,0-1.14-7A44.28,44.28,0,0,0,65,67.39a31.34,31.34,0,0,1,1.89,5.73A32.2,32.2,0,0,1,67.44,76.38Z"/><path d="M77.8,75.82a35.21,35.21,0,0,1-6.13-1.57c-.12-.72-.24-1.42-.4-2.11-.21-.95-.47-1.89-.76-2.82.81.22,1.64.41,2.46.56l.2,0c1,.18,1.94.31,2.93.41A35.58,35.58,0,0,1,77.8,75.82Z"/><path d="M32.85,80.75c.2.88.43,1.76.72,2.65a36.12,36.12,0,0,1-5.5,4.44,37.15,37.15,0,0,1-1-7c.81-.46,1.57-.94,2.34-1.45,1-.66,1.91-1.37,2.82-2.14A34,34,0,0,0,32.85,80.75Z"/><path d="M43.31,75h0a31.07,31.07,0,0,1-2.69,5.33,31.43,31.43,0,0,1-2.3,3.14,30,30,0,0,1-1.1-3.74,31.71,31.71,0,0,1-.75-6.62h0A43.37,43.37,0,0,0,41,67,46.23,46.23,0,0,0,43.31,75Z"/><path d="M48.71,84.41a35.14,35.14,0,0,1-3,5.6,36.05,36.05,0,0,1-2.91-5c.56-.73,1.08-1.49,1.57-2.25s1-1.66,1.45-2.52c.49.84,1,1.66,1.57,2.44C47.82,83.27,48.26,83.85,48.71,84.41Z"/><path d="M13.22,58.77a32.62,32.62,0,0,0-2.08,2.92c-.47.74-.92,1.53-1.34,2.34a37,37,0,0,1-7-.72A36.42,36.42,0,0,1,7,57.66c.9.26,1.78.46,2.67.63A32.55,32.55,0,0,0,13.22,58.77Z"/><path d="M20.18,70.62c-.21.78-.38,1.56-.54,2.34s-.3,1.8-.4,2.72a34.76,34.76,0,0,1-5.53,1.63,36.18,36.18,0,0,1,1.48-5.6c.93-.13,1.82-.3,2.69-.48S19.42,70.85,20.18,70.62Z"/><path d="M26.24,57.75a44.33,44.33,0,0,0-4.17,7.46,31,31,0,0,1-5.16,1.66,31.84,31.84,0,0,1-3.82.59,30.1,30.1,0,0,1,1.83-3.37,31.1,31.1,0,0,1,4.21-5.26A44,44,0,0,0,26.24,57.75Z"/><path d="M9.33,45.56c-.7.4-1.37.83-2,1.28s-1.45,1-2.17,1.62A36.18,36.18,0,0,1,0,45.69a36.13,36.13,0,0,1,5-2.91c.74.55,1.5,1.08,2.25,1.57S8.62,45.18,9.33,45.56Z"/><path d="M6.61,33.53A36.26,36.26,0,0,1,2.16,28a36.7,36.7,0,0,1,7-1c.46.81.94,1.59,1.44,2.33a34.07,34.07,0,0,0,2.15,2.83,32.29,32.29,0,0,0-3.49.59C8.39,33,7.5,33.25,6.61,33.53Z"/><path d="M22.73,40.75a44.9,44.9,0,0,0-8.24,2.32h0a31.59,31.59,0,0,1-4.82-2.49,30.28,30.28,0,0,1-3.15-2.31,32.13,32.13,0,0,1,3.74-1.09,31.88,31.88,0,0,1,6.65-.75A44,44,0,0,0,22.73,40.75Z"/><path d="M19.36,20.13c-.77-.2-1.53-.38-2.3-.52s-1.81-.31-2.73-.4a34.83,34.83,0,0,1-1.65-5.53,35.58,35.58,0,0,1,5.58,1.45c.13.92.3,1.83.49,2.72S19.13,19.37,19.36,20.13Z"/><path d="M32.25,26.18A44.9,44.9,0,0,0,24.76,22a31.42,31.42,0,0,1-1.63-5.13,30.52,30.52,0,0,1-.6-3.86,32.53,32.53,0,0,1,3.42,1.86,31.55,31.55,0,0,1,5.23,4.18A45,45,0,0,0,32.25,26.18Z"/><path d="M32.34,7c-.25.89-.47,1.8-.63,2.68a32.11,32.11,0,0,0-.48,3.49,33.78,33.78,0,0,0-2.89-2c-.76-.47-1.56-.93-2.38-1.36a36.22,36.22,0,0,1,.74-7A36.2,36.2,0,0,1,32.34,7Z"/></g></g><text x="0" y="105.01" fill="#000000" font-size="5px" font-weight="bold" font-family="'Helvetica Neue', Helvetica, Arial-Unicode, Arial, Sans-serif">Created by webar4i</text><text x="0" y="110.01" fill="#000000" font-size="5px" font-weight="bold" font-family="'Helvetica Neue', Helvetica, Arial-Unicode, Arial, Sans-serif">from the Noun Project</text></svg>